<svg xmlns="http://www.w3.org/2000/svg" width="24" height="24" viewBox="0 0 24 24"><defs><linearGradient id="prefix__FacebookCircle" x1="50%" x2="50%" y1="99.999%" y2="0%"><stop offset="0%" stop-color="#1569CB"></stop><stop offset="100%" stop-color="#29AEF3"></stop></linearGradient></defs><g fill="none"><path fill="url(#prefix__FacebookCircle)" d="M24 12c0-6.627-5.373-12-12-12S0 5.373 0 12c0 5.99 4.388 10.954 10.125 11.855v-8.386H7.079V12h3.046V9.357c0-3.007 1.791-4.67 4.533-4.67 1.313 0 2.687.234 2.687.234v2.954H15.83c-1.491 0-1.956.925-1.956 1.873V12h3.328l-.532 3.47h-2.796v8.385C19.613 22.955 24 17.989 24 12"></path><path fill="#FFF" d="M17.203 12h-3.328V9.748c0-.949.465-1.873 1.956-1.873h1.514V4.921s-1.374-.234-2.687-.234c-2.742 0-4.533 1.662-4.533 4.67V12H7.079v3.47h3.046v8.385c.61.096 1.238.145 1.875.145s1.264-.05 1.875-.145v-8.386h2.796L17.203 12z"></path></g></svg>
